<svg id="visual" viewBox="0 0 960 540" width="960" height="540" xmlns="http://www.w3.org/2000/svg" xmlns:xlink="http://www.w3.org/1999/xlink" version="1.1"><g stroke-width="1" stroke-linejoin="bevel"><path d="M509.3 291L435.7 365L494.3 361Z" fill="#1f0640" stroke="#1f0640"></path><path d="M509.3 291L406.7 277L435.7 365Z" fill="#2b196a" stroke="#2b196a"></path><path d="M509.3 291L454.7 203L406.7 277Z" fill="#2d298d" stroke="#2d298d"></path><path d="M454.7 203L358 262L406.7 277Z" fill="#2c2f99" stroke="#2c2f99"></path><path d="M406.7 277L301 388L435.7 365Z" fill="#2d1e75" stroke="#2d1e75"></path><path d="M509.3 291L510.3 189L454.7 203Z" fill="#2c2f99" stroke="#2c2f99"></path><path d="M301 388L390.7 443L435.7 365Z" fill="#1c0036" stroke="#1c0036"></path><path d="M435.7 365L390.7 443L494.3 361Z" fill="#2b196a" stroke="#2b196a"></path><path d="M557.3 480L612 362L494.3 361Z" fill="#2d2481" stroke="#2d2481"></path><path d="M494.3 361L612 362L509.3 291Z" fill="#29145f" stroke="#29145f"></path><path d="M509.3 291L637 243L510.3 189Z" fill="#2d1e75" stroke="#2d1e75"></path><path d="M358 262L301 388L406.7 277Z" fill="#230a4a" stroke="#230a4a"></path><path d="M390.7 443L557.3 480L494.3 361Z" fill="#1c0036" stroke="#1c0036"></path><path d="M612 362L637 243L509.3 291Z" fill="#1f0640" stroke="#1f0640"></path><path d="M395.7 83L341 164L454.7 203Z" fill="#260f54" stroke="#260f54"></path><path d="M454.7 203L341 164L358 262Z" fill="#1f0640" stroke="#1f0640"></path><path d="M358 262L252.3 339L301 388Z" fill="#230a4a" stroke="#230a4a"></path><path d="M557.3 480L633 416L612 362Z" fill="#2b196a" stroke="#2b196a"></path><path d="M612 362L723.7 285L637 243Z" fill="#2d2481" stroke="#2d2481"></path><path d="M242.3 233L252.3 339L358 262Z" fill="#260f54" stroke="#260f54"></path><path d="M349 540L418.7 540L390.7 443Z" fill="#2b196a" stroke="#2b196a"></path><path d="M390.7 443L518.3 540L557.3 480Z" fill="#2b196a" stroke="#2b196a"></path><path d="M291 471L390.7 443L301 388Z" fill="#260f54" stroke="#260f54"></path><path d="M418.7 540L518.3 540L390.7 443Z" fill="#260f54" stroke="#260f54"></path><path d="M557.3 480L611 540L633 416Z" fill="#2d2481" stroke="#2d2481"></path><path d="M208.3 467L291 471L301 388Z" fill="#230a4a" stroke="#230a4a"></path><path d="M341 164L242.3 233L358 262Z" fill="#2d2481" stroke="#2d2481"></path><path d="M637 243L555.3 97L510.3 189Z" fill="#2935a6" stroke="#2935a6"></path><path d="M510.3 189L395.7 83L454.7 203Z" fill="#2935a6" stroke="#2935a6"></path><path d="M723.7 285L672 199L637 243Z" fill="#2d1e75" stroke="#2d1e75"></path><path d="M637 243L672 199L555.3 97Z" fill="#1f0640" stroke="#1f0640"></path><path d="M555.3 97L395.7 83L510.3 189Z" fill="#29145f" stroke="#29145f"></path><path d="M241.3 110L191.3 188L242.3 233Z" fill="#1f0640" stroke="#1f0640"></path><path d="M291 471L349 540L390.7 443Z" fill="#1f0640" stroke="#1f0640"></path><path d="M734.7 340L723.7 285L612 362Z" fill="#260f54" stroke="#260f54"></path><path d="M518.3 540L611 540L557.3 480Z" fill="#2d1e75" stroke="#2d1e75"></path><path d="M633 416L734.7 340L612 362Z" fill="#1f0640" stroke="#1f0640"></path><path d="M746.7 433L734.7 340L633 416Z" fill="#1c0036" stroke="#1c0036"></path><path d="M765.7 147L623 88L672 199Z" fill="#29145f" stroke="#29145f"></path><path d="M672 199L623 88L555.3 97Z" fill="#2d298d" stroke="#2d298d"></path><path d="M555.3 97L432.7 0L395.7 83Z" fill="#1c0036" stroke="#1c0036"></path><path d="M115.7 442L208.3 467L252.3 339Z" fill="#2d2481" stroke="#2d2481"></path><path d="M252.3 339L208.3 467L301 388Z" fill="#1c0036" stroke="#1c0036"></path><path d="M291 471L189.3 540L349 540Z" fill="#2d2481" stroke="#2d2481"></path><path d="M241.3 110L242.3 233L341 164Z" fill="#2d298d" stroke="#2d298d"></path><path d="M242.3 233L107.7 325L252.3 339Z" fill="#2d1e75" stroke="#2d1e75"></path><path d="M284 58L241.3 110L341 164Z" fill="#29145f" stroke="#29145f"></path><path d="M611 540L746.7 433L633 416Z" fill="#2935a6" stroke="#2935a6"></path><path d="M346 0L284 58L395.7 83Z" fill="#2935a6" stroke="#2935a6"></path><path d="M395.7 83L284 58L341 164Z" fill="#29145f" stroke="#29145f"></path><path d="M525.3 0L432.7 0L555.3 97Z" fill="#2935a6" stroke="#2935a6"></path><path d="M623 88L525.3 0L555.3 97Z" fill="#29145f" stroke="#29145f"></path><path d="M432.7 0L346 0L395.7 83Z" fill="#2d298d" stroke="#2d298d"></path><path d="M723.7 285L765.7 147L672 199Z" fill="#260f54" stroke="#260f54"></path><path d="M623 88L644 0L525.3 0Z" fill="#1f0640" stroke="#1f0640"></path><path d="M870.3 233L765.7 147L723.7 285Z" fill="#1c0036" stroke="#1c0036"></path><path d="M870.3 233L723.7 285L734.7 340Z" fill="#1f0640" stroke="#1f0640"></path><path d="M115.7 442L189.3 540L208.3 467Z" fill="#2d2481" stroke="#2d2481"></path><path d="M208.3 467L189.3 540L291 471Z" fill="#1c0036" stroke="#1c0036"></path><path d="M88.7 288L107.7 325L242.3 233Z" fill="#1f0640" stroke="#1f0640"></path><path d="M241.3 110L130.7 176L191.3 188Z" fill="#2d1e75" stroke="#2d1e75"></path><path d="M191.3 188L88.7 288L242.3 233Z" fill="#230a4a" stroke="#230a4a"></path><path d="M93.7 106L130.7 176L241.3 110Z" fill="#1f0640" stroke="#1f0640"></path><path d="M232.3 0L241.3 110L284 58Z" fill="#2935a6" stroke="#2935a6"></path><path d="M764.7 72L644 0L623 88Z" fill="#2d298d" stroke="#2d298d"></path><path d="M107.7 325L115.7 442L252.3 339Z" fill="#230a4a" stroke="#230a4a"></path><path d="M611 540L761.7 540L746.7 433Z" fill="#1c0036" stroke="#1c0036"></path><path d="M746.7 433L867.3 398L734.7 340Z" fill="#2d1e75" stroke="#2d1e75"></path><path d="M130.7 176L88.7 288L191.3 188Z" fill="#2d1e75" stroke="#2d1e75"></path><path d="M107.7 325L0 410L115.7 442Z" fill="#2d1e75" stroke="#2d1e75"></path><path d="M765.7 147L764.7 72L623 88Z" fill="#2935a6" stroke="#2935a6"></path><path d="M761.7 540L826.3 458L746.7 433Z" fill="#2c2f99" stroke="#2c2f99"></path><path d="M765.7 147L847.3 104L764.7 72Z" fill="#2935a6" stroke="#2935a6"></path><path d="M346 0L232.3 0L284 58Z" fill="#2b196a" stroke="#2b196a"></path><path d="M826.3 458L867.3 398L746.7 433Z" fill="#1c0036" stroke="#1c0036"></path><path d="M867.3 398L870.3 233L734.7 340Z" fill="#2d298d" stroke="#2d298d"></path><path d="M136.7 0L93.7 106L241.3 110Z" fill="#2935a6" stroke="#2935a6"></path><path d="M0 205L0 293L88.7 288Z" fill="#2935a6" stroke="#2935a6"></path><path d="M862.3 0L752.7 0L764.7 72Z" fill="#1f0640" stroke="#1f0640"></path><path d="M764.7 72L752.7 0L644 0Z" fill="#29145f" stroke="#29145f"></path><path d="M874.3 156L847.3 104L765.7 147Z" fill="#2c2f99" stroke="#2c2f99"></path><path d="M761.7 540L842.3 540L826.3 458Z" fill="#1c0036" stroke="#1c0036"></path><path d="M826.3 458L960 481L867.3 398Z" fill="#2b196a" stroke="#2b196a"></path><path d="M870.3 233L874.3 156L765.7 147Z" fill="#2c2f99" stroke="#2c2f99"></path><path d="M960 152L874.3 156L870.3 233Z" fill="#2d2481" stroke="#2d2481"></path><path d="M0 336L107.7 325L88.7 288Z" fill="#230a4a" stroke="#230a4a"></path><path d="M0 410L72.7 540L115.7 442Z" fill="#29145f" stroke="#29145f"></path><path d="M115.7 442L72.7 540L189.3 540Z" fill="#2d298d" stroke="#2d298d"></path><path d="M232.3 0L136.7 0L241.3 110Z" fill="#2c2f99" stroke="#2c2f99"></path><path d="M0 293L0 336L88.7 288Z" fill="#2d298d" stroke="#2d298d"></path><path d="M88.7 288L130.7 176L0 205Z" fill="#2935a6" stroke="#2935a6"></path><path d="M0 205L130.7 176L93.7 106Z" fill="#2d1e75" stroke="#2d1e75"></path><path d="M0 336L0 410L107.7 325Z" fill="#2d2481" stroke="#2d2481"></path><path d="M0 127L0 205L93.7 106Z" fill="#2d2481" stroke="#2d2481"></path><path d="M0 0L0 127L93.7 106Z" fill="#1c0036" stroke="#1c0036"></path><path d="M960 481L960 368L867.3 398Z" fill="#1c0036" stroke="#1c0036"></path><path d="M867.3 398L960 368L870.3 233Z" fill="#2d298d" stroke="#2d298d"></path><path d="M960 368L960 244L870.3 233Z" fill="#2c2f99" stroke="#2c2f99"></path><path d="M960 0L862.3 0L847.3 104Z" fill="#260f54" stroke="#260f54"></path><path d="M960 125L847.3 104L874.3 156Z" fill="#2d298d" stroke="#2d298d"></path><path d="M847.3 104L862.3 0L764.7 72Z" fill="#2d1e75" stroke="#2d1e75"></path><path d="M0 410L0 540L72.7 540Z" fill="#2c2f99" stroke="#2c2f99"></path><path d="M842.3 540L960 481L826.3 458Z" fill="#260f54" stroke="#260f54"></path><path d="M960 244L960 152L870.3 233Z" fill="#2b196a" stroke="#2b196a"></path><path d="M960 152L960 125L874.3 156Z" fill="#2d2481" stroke="#2d2481"></path><path d="M842.3 540L960 540L960 481Z" fill="#230a4a" stroke="#230a4a"></path><path d="M136.7 0L0 0L93.7 106Z" fill="#260f54" stroke="#260f54"></path><path d="M960 125L960 0L847.3 104Z" fill="#29145f" stroke="#29145f"></path></g></svg>